<mxfile host="Electron" modified="2024-05-28T03:19:28.589Z" agent="Mozilla/5.0 (Windows NT 10.0; Win64; x64) AppleWebKit/537.36 (KHTML, like Gecko) draw.io/24.2.5 Chrome/120.0.6099.109 Electron/28.1.0 Safari/537.36" etag="PxD-LiP1UxoWUUAiZDL7" version="24.2.5" type="device">
  <diagram name="Seite-1" id="z33ru9XmE5RIzn1WkK1u">
    <mxGraphModel dx="794" dy="519" grid="1" gridSize="10" guides="1" tooltips="1" connect="1" arrows="1" fold="1" page="1" pageScale="1" pageWidth="827" pageHeight="1169" math="0" shadow="0">
      <root>
        <mxCell id="0" />
        <mxCell id="1" parent="0" />
        <mxCell id="zsBvplqShn1SXSgUlegx-6" style="edgeStyle=orthogonalEdgeStyle;rounded=0;orthogonalLoop=1;jettySize=auto;html=1;exitX=0.5;exitY=1;exitDx=0;exitDy=0;jumpStyle=none;" parent="1" edge="1">
          <mxGeometry relative="1" as="geometry">
            <mxPoint x="539" y="280" as="targetPoint" />
            <mxPoint x="539" y="180" as="sourcePoint" />
          </mxGeometry>
        </mxCell>
        <mxCell id="zsBvplqShn1SXSgUlegx-7" value="Serial.write(M;L;H;T)" style="edgeLabel;html=1;align=center;verticalAlign=middle;resizable=0;points=[];" parent="zsBvplqShn1SXSgUlegx-6" vertex="1" connectable="0">
          <mxGeometry x="-0.1264" y="2" relative="1" as="geometry">
            <mxPoint x="59" y="-3" as="offset" />
          </mxGeometry>
        </mxCell>
        <mxCell id="zsBvplqShn1SXSgUlegx-2" value="&lt;b&gt;IoT Node&lt;br&gt;&lt;/b&gt;" style="rounded=0;whiteSpace=wrap;html=1;fillColor=#A680B8;strokeColor=#56517e;" parent="1" vertex="1">
          <mxGeometry x="460" y="120" width="120" height="60" as="geometry" />
        </mxCell>
        <mxCell id="zsBvplqShn1SXSgUlegx-15" style="edgeStyle=orthogonalEdgeStyle;rounded=0;orthogonalLoop=1;jettySize=auto;html=1;exitX=0.25;exitY=0;exitDx=0;exitDy=0;entryX=0.25;entryY=1;entryDx=0;entryDy=0;" parent="1" edge="1">
          <mxGeometry relative="1" as="geometry">
            <mxPoint x="500" y="280" as="sourcePoint" />
            <mxPoint x="500" y="180" as="targetPoint" />
          </mxGeometry>
        </mxCell>
        <mxCell id="r1WRD1Tfyvr-xcElUQkW-1" value="Serial.write(commands)" style="edgeLabel;html=1;align=center;verticalAlign=middle;resizable=0;points=[];" parent="zsBvplqShn1SXSgUlegx-15" vertex="1" connectable="0">
          <mxGeometry x="0.169" y="4" relative="1" as="geometry">
            <mxPoint x="-65" as="offset" />
          </mxGeometry>
        </mxCell>
        <mxCell id="zsBvplqShn1SXSgUlegx-9" value="&lt;div&gt;controller.py&lt;/div&gt;" style="rounded=0;whiteSpace=wrap;html=1;fillColor=#b1ddf0;strokeColor=#10739e;" parent="1" vertex="1">
          <mxGeometry x="460" y="280" width="120" height="60" as="geometry" />
        </mxCell>
        <mxCell id="zsBvplqShn1SXSgUlegx-46" value="" style="endArrow=none;dashed=1;html=1;rounded=0;exitX=0;exitY=1;exitDx=0;exitDy=0;" parent="1" source="zsBvplqShn1SXSgUlegx-57" edge="1">
          <mxGeometry width="50" height="50" relative="1" as="geometry">
            <mxPoint x="40" y="520" as="sourcePoint" />
            <mxPoint x="670" y="360" as="targetPoint" />
          </mxGeometry>
        </mxCell>
        <mxCell id="zsBvplqShn1SXSgUlegx-49" value="" style="endArrow=none;dashed=1;html=1;rounded=0;" parent="1" edge="1">
          <mxGeometry width="50" height="50" relative="1" as="geometry">
            <mxPoint x="400" y="260" as="sourcePoint" />
            <mxPoint x="670" y="260" as="targetPoint" />
          </mxGeometry>
        </mxCell>
        <mxCell id="zsBvplqShn1SXSgUlegx-57" value="&lt;b&gt;Raspberry Pi&lt;/b&gt;" style="rounded=0;whiteSpace=wrap;html=1;strokeColor=#0e8088;fillColor=#b0e3e6;rotation=-90;" parent="1" vertex="1">
          <mxGeometry x="333.5" y="294.5" width="101" height="30" as="geometry" />
        </mxCell>
        <mxCell id="r1WRD1Tfyvr-xcElUQkW-5" value="" style="endArrow=none;dashed=1;html=1;rounded=0;" parent="1" edge="1">
          <mxGeometry width="50" height="50" relative="1" as="geometry">
            <mxPoint x="670" y="360" as="sourcePoint" />
            <mxPoint x="670" y="260" as="targetPoint" />
          </mxGeometry>
        </mxCell>
        <mxCell id="r1WRD1Tfyvr-xcElUQkW-7" value="&lt;br&gt;&lt;div&gt;&lt;br/&gt;&lt;/div&gt;" style="edgeStyle=orthogonalEdgeStyle;rounded=0;orthogonalLoop=1;jettySize=auto;html=1;exitX=1;exitY=0.25;exitDx=0;exitDy=0;entryX=0;entryY=0.25;entryDx=0;entryDy=0;startArrow=classic;startFill=1;endArrow=none;endFill=0;" parent="1" target="r1WRD1Tfyvr-xcElUQkW-14" edge="1">
          <mxGeometry y="-40" relative="1" as="geometry">
            <mxPoint x="304.0000000000001" y="600" as="sourcePoint" />
            <mxPoint x="388.0000000000001" y="695" as="targetPoint" />
            <mxPoint as="offset" />
          </mxGeometry>
        </mxCell>
        <mxCell id="r1WRD1Tfyvr-xcElUQkW-19" value="&lt;font face=&quot;monospace&quot;&gt;ws://20.42.87.166:3000&lt;/font&gt;&lt;div&gt;(Websocket)&lt;/div&gt;" style="edgeLabel;html=1;align=center;verticalAlign=middle;resizable=0;points=[];" parent="r1WRD1Tfyvr-xcElUQkW-7" vertex="1" connectable="0">
          <mxGeometry x="0.1861" y="-1" relative="1" as="geometry">
            <mxPoint x="-12" y="-19" as="offset" />
          </mxGeometry>
        </mxCell>
        <mxCell id="r1WRD1Tfyvr-xcElUQkW-9" value="&lt;b&gt;Dashboard&lt;/b&gt;" style="rounded=0;whiteSpace=wrap;html=1;fillColor=#b1ddf0;strokeColor=#10739e;" parent="1" vertex="1">
          <mxGeometry x="184" y="585" width="120" height="60" as="geometry" />
        </mxCell>
        <mxCell id="r1WRD1Tfyvr-xcElUQkW-11" value="" style="edgeStyle=orthogonalEdgeStyle;rounded=0;orthogonalLoop=1;jettySize=auto;html=1;endArrow=none;endFill=0;startArrow=classic;startFill=1;entryX=1;entryY=0.75;entryDx=0;entryDy=0;exitX=0;exitY=0.75;exitDx=0;exitDy=0;" parent="1" source="r1WRD1Tfyvr-xcElUQkW-14" edge="1">
          <mxGeometry relative="1" as="geometry">
            <mxPoint x="358.0000000000001" y="725" as="sourcePoint" />
            <mxPoint x="304.0000000000001" y="630" as="targetPoint" />
          </mxGeometry>
        </mxCell>
        <mxCell id="r1WRD1Tfyvr-xcElUQkW-21" value="&lt;font face=&quot;monospace&quot;&gt;POST /updateAlarmThreshold&lt;/font&gt;" style="edgeLabel;html=1;align=center;verticalAlign=middle;resizable=0;points=[];" parent="r1WRD1Tfyvr-xcElUQkW-11" vertex="1" connectable="0">
          <mxGeometry x="-0.013" y="2" relative="1" as="geometry">
            <mxPoint y="22" as="offset" />
          </mxGeometry>
        </mxCell>
        <mxCell id="r1WRD1Tfyvr-xcElUQkW-14" value="&lt;div&gt;server.js&lt;/div&gt;&lt;div&gt;(Node.js Backend)&lt;br&gt;&lt;/div&gt;" style="rounded=0;whiteSpace=wrap;html=1;fillColor=#b1ddf0;strokeColor=#10739e;" parent="1" vertex="1">
          <mxGeometry x="458" y="585" width="120" height="60" as="geometry" />
        </mxCell>
        <mxCell id="r1WRD1Tfyvr-xcElUQkW-15" value="MariaDB" style="shape=cylinder3;whiteSpace=wrap;html=1;boundedLbl=1;backgroundOutline=1;size=15;fillColor=#b1ddf0;strokeColor=#10739e;" parent="1" vertex="1">
          <mxGeometry x="488" y="715" width="60" height="80" as="geometry" />
        </mxCell>
        <mxCell id="r1WRD1Tfyvr-xcElUQkW-16" style="edgeStyle=orthogonalEdgeStyle;rounded=0;orthogonalLoop=1;jettySize=auto;html=1;exitX=0.5;exitY=1;exitDx=0;exitDy=0;entryX=0.5;entryY=0;entryDx=0;entryDy=0;entryPerimeter=0;" parent="1" source="r1WRD1Tfyvr-xcElUQkW-14" target="r1WRD1Tfyvr-xcElUQkW-15" edge="1">
          <mxGeometry relative="1" as="geometry" />
        </mxCell>
        <mxCell id="r1WRD1Tfyvr-xcElUQkW-17" value="&lt;b&gt;Microsoft Azure Cloud&lt;/b&gt;" style="rounded=0;whiteSpace=wrap;html=1;strokeColor=#0e8088;fillColor=#b0e3e6;" parent="1" vertex="1">
          <mxGeometry x="169.5" y="410" width="164" height="30" as="geometry" />
        </mxCell>
        <mxCell id="r1WRD1Tfyvr-xcElUQkW-22" value="&lt;div&gt;&lt;font face=&quot;monospace&quot;&gt;INSERT INTO&amp;nbsp;&lt;/font&gt;&lt;/div&gt;&lt;div&gt;&lt;font face=&quot;monospace&quot;&gt;watering_system_data&lt;/font&gt;&lt;/div&gt;&lt;div&gt;&lt;br&gt;&lt;/div&gt;" style="edgeLabel;html=1;align=center;verticalAlign=middle;resizable=0;points=[];" parent="1" vertex="1" connectable="0">
          <mxGeometry x="584.0000000000002" y="685.0029411764706" as="geometry">
            <mxPoint x="17" y="-1" as="offset" />
          </mxGeometry>
        </mxCell>
        <mxCell id="r1WRD1Tfyvr-xcElUQkW-24" style="edgeStyle=orthogonalEdgeStyle;rounded=0;orthogonalLoop=1;jettySize=auto;html=1;exitX=0.5;exitY=1;exitDx=0;exitDy=0;jumpStyle=none;" parent="1" edge="1">
          <mxGeometry relative="1" as="geometry">
            <mxPoint x="540" y="440" as="targetPoint" />
            <mxPoint x="540" y="340" as="sourcePoint" />
          </mxGeometry>
        </mxCell>
        <mxCell id="r1WRD1Tfyvr-xcElUQkW-26" style="edgeStyle=orthogonalEdgeStyle;rounded=0;orthogonalLoop=1;jettySize=auto;html=1;exitX=0.25;exitY=0;exitDx=0;exitDy=0;entryX=0.25;entryY=1;entryDx=0;entryDy=0;" parent="1" edge="1">
          <mxGeometry relative="1" as="geometry">
            <mxPoint x="500" y="440" as="sourcePoint" />
            <mxPoint x="500" y="340" as="targetPoint" />
          </mxGeometry>
        </mxCell>
        <mxCell id="r1WRD1Tfyvr-xcElUQkW-30" value="&lt;div&gt;MQTT Broker&lt;/div&gt;" style="rounded=0;whiteSpace=wrap;html=1;fillColor=#b1ddf0;strokeColor=#10739e;" parent="1" vertex="1">
          <mxGeometry x="460" y="440" width="120" height="60" as="geometry" />
        </mxCell>
        <mxCell id="r1WRD1Tfyvr-xcElUQkW-31" value="publish to&amp;nbsp;&lt;font style=&quot;&quot; face=&quot;monospace&quot;&gt;ardu&lt;/font&gt;&lt;font style=&quot;&quot; face=&quot;monospace&quot;&gt;ino/data&lt;/font&gt;&lt;div&gt;MQTT topic&lt;/div&gt;" style="edgeLabel;html=1;align=center;verticalAlign=middle;resizable=0;points=[];" parent="1" vertex="1" connectable="0">
          <mxGeometry x="618" y="386.9966666666666" as="geometry">
            <mxPoint x="-5" y="-2" as="offset" />
          </mxGeometry>
        </mxCell>
        <mxCell id="r1WRD1Tfyvr-xcElUQkW-32" value="subscibe &lt;font face=&quot;monospace&quot;&gt;arduino/command&lt;/font&gt;&lt;div&gt;MQTT topic&lt;/div&gt;" style="edgeLabel;html=1;align=center;verticalAlign=middle;resizable=0;points=[];" parent="1" vertex="1" connectable="0">
          <mxGeometry x="416" y="384.9966666666666" as="geometry" />
        </mxCell>
        <mxCell id="r1WRD1Tfyvr-xcElUQkW-34" style="edgeStyle=orthogonalEdgeStyle;rounded=0;orthogonalLoop=1;jettySize=auto;html=1;entryX=0.25;entryY=1;entryDx=0;entryDy=0;exitX=0.351;exitY=-0.01;exitDx=0;exitDy=0;exitPerimeter=0;" parent="1" source="r1WRD1Tfyvr-xcElUQkW-14" edge="1">
          <mxGeometry relative="1" as="geometry">
            <mxPoint x="500" y="580" as="sourcePoint" />
            <mxPoint x="500" y="500" as="targetPoint" />
          </mxGeometry>
        </mxCell>
        <mxCell id="r1WRD1Tfyvr-xcElUQkW-37" value="publish to&amp;nbsp;&lt;font face=&quot;monospace&quot;&gt;ar&lt;/font&gt;&lt;font face=&quot;monospace&quot;&gt;duino/command&lt;/font&gt;&lt;div&gt;MQTT topic&lt;/div&gt;" style="edgeLabel;html=1;align=center;verticalAlign=middle;resizable=0;points=[];" parent="r1WRD1Tfyvr-xcElUQkW-34" vertex="1" connectable="0">
          <mxGeometry x="-0.0238" y="4" relative="1" as="geometry">
            <mxPoint x="-81" y="-10" as="offset" />
          </mxGeometry>
        </mxCell>
        <mxCell id="r1WRD1Tfyvr-xcElUQkW-35" style="edgeStyle=orthogonalEdgeStyle;rounded=0;orthogonalLoop=1;jettySize=auto;html=1;entryX=0.25;entryY=1;entryDx=0;entryDy=0;exitX=0.351;exitY=-0.01;exitDx=0;exitDy=0;exitPerimeter=0;startArrow=classic;startFill=1;endArrow=none;endFill=0;" parent="1" edge="1">
          <mxGeometry relative="1" as="geometry">
            <mxPoint x="540" y="585" as="sourcePoint" />
            <mxPoint x="540" y="501" as="targetPoint" />
          </mxGeometry>
        </mxCell>
        <mxCell id="r1WRD1Tfyvr-xcElUQkW-36" value="subscibe&amp;nbsp;&lt;font face=&quot;monospace&quot;&gt;arduino/data&lt;/font&gt;&lt;div&gt;MQTT topic&lt;/div&gt;" style="edgeLabel;html=1;align=center;verticalAlign=middle;resizable=0;points=[];" parent="r1WRD1Tfyvr-xcElUQkW-35" vertex="1" connectable="0">
          <mxGeometry x="0.2024" y="-1" relative="1" as="geometry">
            <mxPoint x="72" y="-2" as="offset" />
          </mxGeometry>
        </mxCell>
        <mxCell id="r1WRD1Tfyvr-xcElUQkW-39" value="" style="endArrow=none;dashed=1;html=1;rounded=0;" parent="1" edge="1">
          <mxGeometry width="50" height="50" relative="1" as="geometry">
            <mxPoint x="170" y="820" as="sourcePoint" />
            <mxPoint x="169.5" y="440" as="targetPoint" />
          </mxGeometry>
        </mxCell>
        <mxCell id="r1WRD1Tfyvr-xcElUQkW-40" value="" style="endArrow=none;dashed=1;html=1;rounded=0;" parent="1" edge="1">
          <mxGeometry width="50" height="50" relative="1" as="geometry">
            <mxPoint x="169.5" y="820" as="sourcePoint" />
            <mxPoint x="700" y="820" as="targetPoint" />
          </mxGeometry>
        </mxCell>
        <mxCell id="r1WRD1Tfyvr-xcElUQkW-41" value="" style="endArrow=none;dashed=1;html=1;rounded=0;" parent="1" edge="1">
          <mxGeometry width="50" height="50" relative="1" as="geometry">
            <mxPoint x="700" y="820" as="sourcePoint" />
            <mxPoint x="700" y="410" as="targetPoint" />
          </mxGeometry>
        </mxCell>
        <mxCell id="r1WRD1Tfyvr-xcElUQkW-42" value="" style="endArrow=none;dashed=1;html=1;rounded=0;" parent="1" edge="1">
          <mxGeometry width="50" height="50" relative="1" as="geometry">
            <mxPoint x="340" y="410" as="sourcePoint" />
            <mxPoint x="700" y="410" as="targetPoint" />
          </mxGeometry>
        </mxCell>
      </root>
    </mxGraphModel>
  </diagram>
</mxfile>
